<svg width="54" height="54" viewBox="0 0 54 54" fill="none" xmlns="http://www.w3.org/2000/svg">
<path d="M43.4508 34.1244C43.1039 34.1244 42.7578 34.1456 42.4145 34.1878V19.8122C42.7575 19.8542 43.1039 19.8757 43.4508 19.8757C48.1648 19.8757 52 16.0404 52 11.3264C52 6.61246 48.1648 2.77722 43.4508 2.77722C38.7368 2.77722 34.9016 6.61246 34.9016 11.3264C34.9016 11.3495 34.9016 23.2435 34.9016 23.2435H19.0984C19.0984 23.2435 19.0984 11.3505 19.0984 11.3264C19.0984 6.61246 15.2632 2.77722 10.5492 2.77722C5.83523 2.77722 2 6.61246 2 11.3264C2 16.0404 5.83523 19.8757 10.5492 19.8757C10.8961 19.8757 11.2422 19.8542 11.5855 19.8122V34.1878C11.2422 34.1456 10.8961 34.1244 10.5492 34.1244C5.83523 34.1244 2 37.9596 2 42.6736C2 47.3876 5.83523 51.2228 10.5492 51.2228C15.2632 51.2228 19.0984 47.3876 19.0984 42.6736C19.0984 42.6505 19.0984 30.7565 19.0984 30.7565H34.9016C34.9016 30.7565 34.9016 42.6495 34.9016 42.6736C34.9016 47.3876 38.7368 51.2228 43.4508 51.2228C48.1648 51.2228 52 47.3876 52 42.6736C52 37.9596 48.1648 34.1244 43.4508 34.1244ZM43.4508 49.1503C39.8795 49.1503 36.9741 46.2448 36.9741 42.6736C36.9741 42.6301 36.9767 42.5873 36.9775 42.5441H36.9741V28.684H17.0259V42.5441H17.0225C17.0236 42.5873 17.0259 42.6301 17.0259 42.6736C17.0259 46.2448 14.1205 49.1503 10.5492 49.1503C6.97798 49.1503 4.07254 46.2448 4.07254 42.6736C4.07254 39.1024 6.97798 36.1969 10.5492 36.1969C10.9023 36.1969 11.2477 36.2285 11.5855 36.2832V39.7461C11.2609 39.6308 10.913 39.5648 10.5492 39.5648C8.83497 39.5648 7.44041 40.9593 7.44041 42.6736C7.44041 44.3878 8.83497 45.7824 10.5492 45.7824C12.2635 45.7824 13.658 44.3878 13.658 42.6736V36.9935V28.684V27V17.0062V11.3264C13.658 9.6122 12.2635 8.21764 10.5492 8.21764C8.83497 8.21764 7.44041 9.6122 7.44041 11.3264C7.44041 13.0407 8.83497 14.4353 10.5492 14.4353C10.913 14.4353 11.2609 14.3692 11.5855 14.2539V17.7169C11.2477 17.7715 10.9023 17.8031 10.5492 17.8031C6.97798 17.8031 4.07254 14.8977 4.07254 11.3264C4.07254 7.7552 6.97798 4.84976 10.5492 4.84976C14.1205 4.84976 17.0259 7.7552 17.0259 11.3264C17.0259 11.3697 17.0236 11.4127 17.0225 11.456H17.0259V25.3161H36.9741V11.456H36.9775C36.9767 11.4127 36.9741 11.3697 36.9741 11.3264C36.9741 7.7552 39.8795 4.84976 43.4508 4.84976C47.022 4.84976 49.9275 7.7552 49.9275 11.3264C49.9275 14.8977 47.022 17.8031 43.4508 17.8031C43.0979 17.8031 42.7523 17.7715 42.4145 17.7169V14.2539C42.7391 14.3692 43.087 14.4353 43.4508 14.4353C45.165 14.4353 46.5596 13.0407 46.5596 11.3264C46.5596 9.6122 45.165 8.21764 43.4508 8.21764C41.7365 8.21764 40.342 9.6122 40.342 11.3264V17.0062V27V28.684V36.9935V42.6736C40.342 44.3878 41.7365 45.7824 43.4508 45.7824C45.165 45.7824 46.5596 44.3878 46.5596 42.6736C46.5596 40.9593 45.165 39.5648 43.4508 39.5648C43.087 39.5648 42.7391 39.6308 42.4145 39.7461V36.2832C42.7523 36.2285 43.0979 36.1969 43.4508 36.1969C47.022 36.1969 49.9275 39.1024 49.9275 42.6736C49.9275 46.2448 47.022 49.1503 43.4508 49.1503ZM11.5855 42.6736C11.5855 43.2451 11.1207 43.7099 10.5492 43.7099C9.97772 43.7099 9.51295 43.2451 9.51295 42.6736C9.51295 42.1021 9.97772 41.6373 10.5492 41.6373C11.1207 41.6373 11.5855 42.1021 11.5855 42.6736ZM10.5492 12.3627C9.97772 12.3627 9.51295 11.8979 9.51295 11.3264C9.51295 10.7549 9.97772 10.2902 10.5492 10.2902C11.1207 10.2902 11.5855 10.7549 11.5855 11.3264C11.5855 11.8979 11.1207 12.3627 10.5492 12.3627ZM42.4145 11.3264C42.4145 10.7549 42.8793 10.2902 43.4508 10.2902C44.0223 10.2902 44.487 10.7549 44.487 11.3264C44.487 11.8979 44.0223 12.3627 43.4508 12.3627C42.8793 12.3627 42.4145 11.8979 42.4145 11.3264ZM42.4145 42.6736C42.4145 42.1021 42.8793 41.6373 43.4508 41.6373C44.0223 41.6373 44.487 42.1021 44.487 42.6736C44.487 43.2451 44.0223 43.7099 43.4508 43.7099C42.8793 43.7099 42.4145 43.2451 42.4145 42.6736Z" fill="#F0B90B"/>
</svg>
