<svg width="16" height="16" viewBox="0 0 16 16" fill="none" xmlns="http://www.w3.org/2000/svg">
<g clip-path="url(#clip0_300_363)">
<path d="M4.8 4.8V1.6C4.8 0.72 5.52 0 6.4 0H14.4C14.8243 0 15.2313 0.168571 15.5314 0.468629C15.8314 0.768687 16 1.17565 16 1.6V9.6C16 10.0243 15.8314 10.4313 15.5314 10.7314C15.2313 11.0314 14.8243 11.2 14.4 11.2H11.2V14.4C11.2 14.8243 11.0314 15.2313 10.7314 15.5314C10.4313 15.8314 10.0243 16 9.6 16H1.6C1.17565 16 0.768687 15.8314 0.468629 15.5314C0.168571 15.2313 0 14.8243 0 14.4V6.4C0 5.52 0.72 4.8 1.6 4.8H4.8ZM6.4 4.8H9.6C10.0243 4.8 10.4313 4.96857 10.7314 5.26863C11.0314 5.56869 11.2 5.97565 11.2 6.4V9.6H14.4V1.6H6.4V4.8ZM1.6 6.4V14.4H9.6V6.4H1.6Z" fill="#333333"/>
</g>
<defs>
<clipPath id="clip0_300_363">
<rect width="16" height="16" fill="white"/>
</clipPath>
</defs>
</svg>
